<svg xmlns="http://www.w3.org/2000/svg" width="61" height="60" viewBox="0 0 61 60" fill="#dfb85d">
  <path d="M30.3982 0C13.8649 0 0.398193 13.4 0.398193 30C0.398193 46.5333 13.8649 60 30.3982 60C46.9982 60 60.3982 46.5333 60.3982 30C60.3982 13.4 46.9982 0 30.3982 0ZM20.7315 42.5333C16.265 43.2666 11.4649 40.8001 10.3315 34.6C9.13142 25.7333 15.6649 18.3333 25.3315 17.2667C25.6649 17.2 25.7315 17.5334 25.7315 17.5334L26.1981 20.2667C26.1981 20.2667 26.2647 20.6 25.9313 20.6666C23.1315 21.5334 20.7981 22.8667 19.9313 26.3333C23.7312 26.5334 26.998 29.3333 27.6647 33.2666C28.1981 37.7332 25.1981 41.8666 20.7313 42.5333L20.7315 42.5333ZM43.7315 42.5333C39.265 43.2666 34.4649 40.8001 33.2649 34.6C32.1316 25.7333 38.5982 18.3333 48.2649 17.2667C48.5982 17.2 48.6648 17.5334 48.6648 17.5334L49.1314 20.2667C49.1314 20.2667 49.198 20.6 48.8647 20.6666C46.0648 21.5334 43.7315 22.8667 42.798 26.3333C46.5979 26.5334 49.8647 29.3333 50.5313 33.2666C51.2648 37.7332 48.198 41.8666 43.7313 42.5333L43.7315 42.5333Z" fill="#dfb85d"/>
</svg>